<?xml version="1.0"?>
<svg xmlns="http://www.w3.org/2000/svg" xmlns:xlink="http://www.w3.org/1999/xlink" xmlns:svgjs="http://svgjs.com/svgjs" version="1.1" width="512" height="512" x="0" y="0" viewBox="0 0 64 64" style="enable-background:new 0 0 512 512" xml:space="preserve" class=""><g><g xmlns="http://www.w3.org/2000/svg" id="brain-Ai-robotics-technology-artificial_intelligence" data-name="brain-Ai-robotics-technology-artificial intelligence"><path d="M46.832,31.448A3.926,3.926,0,0,0,45,31V29a6,6,0,0,1,1.78.281A3.935,3.935,0,0,0,47,28a4,4,0,0,0-2.185-3.548A6.005,6.005,0,0,1,39,29V27a4,4,0,1,0-4-4V41a4,4,0,1,0,4-4V35a6,6,0,0,1,5.635,3.959c.124.011.232.041.365.041a4,4,0,0,0,1.832-7.552Z" fill="#ffffff" data-original="#000000" style="" class=""/><path d="M25,19a4,4,0,0,0,0,8v2a6.005,6.005,0,0,1-5.815-4.548A4,4,0,0,0,17,28a3.945,3.945,0,0,0,.22,1.281A5.99,5.99,0,0,1,19,29v2a3.919,3.919,0,0,0-1.823.443A4,4,0,0,0,19,39c.133,0,.241-.03.365-.041A6,6,0,0,1,25,35v2a4,4,0,1,0,4,4V23A4,4,0,0,0,25,19Z" fill="#ffffff" data-original="#000000" style="" class=""/><path d="M32,12A20,20,0,1,0,52,32,20.023,20.023,0,0,0,32,12ZM31,41a6,6,0,0,1-12,0,5.991,5.991,0,0,1-3.573-10.807,5.947,5.947,0,0,1,3.61-7.845A6,6,0,0,1,31,23Zm14,0a6,6,0,0,1-12,0V23a6,6,0,0,1,11.963-.652,5.946,5.946,0,0,1,3.61,7.844A5.992,5.992,0,0,1,45,41Z" fill="#ffffff" data-original="#000000" style="" class=""/><path d="M31,7.82v2.21h2V7.82a3,3,0,1,0-2,0Z" fill="#ffffff" data-original="#000000" style="" class=""/><path d="M14.19,15.61l1.56,1.55,1.41-1.41-1.55-1.56a3,3,0,1,0-1.42,1.42Z" fill="#ffffff" data-original="#000000" style="" class=""/><path d="M10,32c0-.34.01-.67.03-1H7.82a3,3,0,1,0,0,2h2.21C10.01,32.67,10,32.34,10,32Z" fill="#ffffff" data-original="#000000" style="" class=""/><path d="M15.75,46.84l-1.56,1.55a3,3,0,1,0,1.42,1.42l1.55-1.56Q16.425,47.575,15.75,46.84Z" fill="#ffffff" data-original="#000000" style="" class=""/><path d="M33,56.18V53.97c-.33.02-.66.03-1,.03s-.67-.01-1-.03v2.21a3,3,0,1,0,2,0Z" fill="#ffffff" data-original="#000000" style="" class=""/><path d="M49.81,48.39l-1.56-1.55q-.675.735-1.41,1.41l1.55,1.56a3,3,0,1,0,1.42-1.42Z" fill="#ffffff" data-original="#000000" style="" class=""/><path d="M59,29a3.01,3.01,0,0,0-2.82,2H53.97v2h2.21A3,3,0,1,0,59,29Z" fill="#ffffff" data-original="#000000" style="" class=""/><path d="M48.25,17.16l1.56-1.55a3,3,0,1,0-1.42-1.42l-1.55,1.56Q47.575,16.425,48.25,17.16Z" fill="#ffffff" data-original="#000000" style="" class=""/></g></g></svg>
