<?xml version="1.0"?>
<svg xmlns="http://www.w3.org/2000/svg" viewBox="0 0 64 64" width="512" height="512"><g id="brain-Ai-robotics-technology-artificial_intelligence" data-name="brain-Ai-robotics-technology-artificial intelligence"><path d="M25,17a6.007,6.007,0,0,0-5.963,5.348,5.947,5.947,0,0,0-3.61,7.845A5.991,5.991,0,0,0,19,41a6,6,0,0,0,12,0V23A6.006,6.006,0,0,0,25,17Zm4,24a4,4,0,1,1-4-4V35a6,6,0,0,0-5.635,3.959c-.124.011-.232.041-.365.041a4,4,0,0,1-1.823-7.557A3.919,3.919,0,0,1,19,31V29a5.99,5.99,0,0,0-1.78.281A3.945,3.945,0,0,1,17,28a4,4,0,0,1,2.185-3.548A6.005,6.005,0,0,0,25,29V27a4,4,0,1,1,4-4Z"/><path d="M39,17a6.006,6.006,0,0,0-6,6V41a6,6,0,0,0,12,0,5.992,5.992,0,0,0,3.573-10.808,5.946,5.946,0,0,0-3.61-7.844A6.007,6.007,0,0,0,39,17Zm8,11a3.935,3.935,0,0,1-.22,1.281A6,6,0,0,0,45,29v2a3.926,3.926,0,0,1,1.832.448A4,4,0,0,1,45,39c-.133,0-.241-.03-.365-.041A6,6,0,0,0,39,35v2a4,4,0,1,1-4,4V23a4,4,0,1,1,4,4v2a6.005,6.005,0,0,0,5.815-4.548A4,4,0,0,1,47,28Z"/><path d="M59,29a3,3,0,0,0-2.816,2H53.975a21.912,21.912,0,0,0-5.736-13.825l1.567-1.567a2.994,2.994,0,0,0,3.407-4.821,3.072,3.072,0,0,0-4.242,0h0a3,3,0,0,0-.576,3.4l-1.569,1.569A21.914,21.914,0,0,0,33,10.025V7.816a3,3,0,1,0-2,0v2.209a21.914,21.914,0,0,0-13.825,5.736l-1.569-1.569a3,3,0,0,0-.576-3.4,3.073,3.073,0,0,0-4.243,0,3,3,0,0,0,0,4.242h0a2.965,2.965,0,0,0,3.407.579l1.567,1.567A21.912,21.912,0,0,0,10.025,31H7.816a3,3,0,1,0,0,2h2.209a21.912,21.912,0,0,0,5.736,13.825L14.183,48.4a3.074,3.074,0,0,0-3.4.568,3,3,0,1,0,4.242,4.242h0a3,3,0,0,0,.576-3.405l1.569-1.569A21.914,21.914,0,0,0,31,53.975v2.209a3,3,0,1,0,2,0V53.975a21.914,21.914,0,0,0,13.825-5.736l1.569,1.569a2.994,2.994,0,1,0,4.819-.837h0a3.074,3.074,0,0,0-3.4-.568l-1.578-1.578A21.912,21.912,0,0,0,53.975,33h2.209A2.995,2.995,0,1,0,59,29ZM50.385,12.2h0A1,1,0,1,1,51.8,13.615a1.02,1.02,0,0,1-1.413,0A1,1,0,0,1,50.385,12.2ZM32,4a1,1,0,1,1-1,1A1,1,0,0,1,32,4ZM12.2,13.615h0a1,1,0,0,1,0-1.414,1,1,0,0,1,1.413,0,1,1,0,0,1,0,1.414A1.02,1.02,0,0,1,12.2,13.615ZM5,33a1,1,0,1,1,1-1A1,1,0,0,1,5,33Zm8.615,18.8h0a1.021,1.021,0,0,1-1.414,0,1,1,0,0,1,0-1.414,1,1,0,0,1,1.413,0A1,1,0,0,1,13.615,51.8ZM32,60a1,1,0,1,1,1-1A1,1,0,0,1,32,60Zm19.092-9.908a.985.985,0,0,1,.706.293h0a1,1,0,0,1,0,1.414,1.02,1.02,0,0,1-1.413,0,1,1,0,0,1,0-1.414A.989.989,0,0,1,51.092,50.092ZM32,52A20,20,0,1,1,52,32,20.023,20.023,0,0,1,32,52ZM59,33a1,1,0,1,1,1-1A1,1,0,0,1,59,33Z"/></g></svg>
